<svg xmlns="http://www.w3.org/2000/svg" viewBox="0 0 347 238" width="347" height="238">
  <path d="M 35.0 151.0 L 35.0 158.0 L 36.0 160.0 L 40.0 163.0 L 47.0 163.0 L 77.0 194.0 L 77.0 200.0 L 81.0 204.0 L 87.0 204.0 L 91.0 200.0 L 91.0 196.0 L 94.0 193.0 L 103.0 189.0 L 105.0 187.0 L 116.0 182.0 L 120.0 179.0 L 125.0 179.0 L 127.0 177.0 L 127.0 174.0 L 125.0 172.0 L 122.0 172.0 L 113.0 180.0 L 102.0 185.0 L 100.0 187.0 L 90.0 192.0 L 86.0 191.0 L 85.0 190.0 L 80.0 190.0 L 52.0 161.0 L 52.0 151.0 L 49.0 147.0 L 47.0 146.0 L 40.0 146.0 L 38.0 147.0 Z M 180.0 44.0 L 176.0 46.0 L 176.0 54.0 L 172.0 61.0 L 175.0 70.0 L 173.0 71.0 L 170.0 67.0 L 160.0 70.0 L 153.0 79.0 L 157.0 85.0 L 156.0 87.0 L 125.0 91.0 L 105.0 99.0 L 96.0 106.0 L 99.0 113.0 L 108.0 121.0 L 133.0 130.0 L 149.0 130.0 L 151.0 127.0 L 133.0 123.0 L 125.0 118.0 L 127.0 115.0 L 160.0 108.0 L 161.0 110.0 L 153.0 115.0 L 159.0 119.0 L 164.0 119.0 L 171.0 108.0 L 173.0 110.0 L 173.0 126.0 L 170.0 130.0 L 167.0 130.0 L 167.0 135.0 L 174.0 145.0 L 175.0 159.0 L 178.0 162.0 L 182.0 159.0 L 183.0 145.0 L 191.0 132.0 L 184.0 125.0 L 184.0 110.0 L 186.0 108.0 L 193.0 119.0 L 198.0 119.0 L 204.0 115.0 L 200.0 114.0 L 197.0 111.0 L 198.0 109.0 L 230.0 116.0 L 232.0 118.0 L 230.0 121.0 L 207.0 128.0 L 209.0 131.0 L 223.0 131.0 L 243.0 125.0 L 258.0 114.0 L 258.0 110.0 L 261.0 110.0 L 257.0 103.0 L 242.0 95.0 L 219.0 89.0 L 200.0 87.0 L 199.0 85.0 L 204.0 81.0 L 204.0 78.0 L 197.0 70.0 L 192.0 67.0 L 182.0 70.0 L 185.0 61.0 L 181.0 53.0 Z M 252.0 107.0 L 253.0 106.0 L 254.0 106.0 L 255.0 107.0 L 254.0 108.0 L 253.0 108.0 Z M 103.0 106.0 L 104.0 107.0 L 101.0 110.0 L 100.0 109.0 L 100.0 108.0 L 102.0 106.0 Z M 244.0 108.0 L 244.0 107.0 L 245.0 106.0 L 245.0 104.0 L 244.0 103.0 L 244.0 102.0 L 245.0 101.0 L 246.0 102.0 L 248.0 102.0 L 249.0 103.0 L 250.0 103.0 L 251.0 104.0 L 251.0 105.0 L 250.0 106.0 L 249.0 106.0 L 246.0 109.0 L 245.0 109.0 Z M 110.0 101.0 L 112.0 101.0 L 113.0 102.0 L 112.0 103.0 L 112.0 105.0 L 113.0 106.0 L 113.0 107.0 L 112.0 108.0 L 111.0 108.0 L 107.0 104.0 L 107.0 103.0 L 108.0 102.0 L 109.0 102.0 Z M 242.0 101.0 L 243.0 100.0 L 244.0 101.0 L 243.0 102.0 Z M 114.0 100.0 L 115.0 99.0 L 116.0 100.0 L 115.0 101.0 Z M 116.0 99.0 L 118.0 97.0 L 119.0 97.0 L 120.0 98.0 L 120.0 99.0 L 119.0 100.0 L 117.0 100.0 Z M 227.0 96.0 L 228.0 95.0 L 230.0 95.0 L 231.0 96.0 L 233.0 96.0 L 234.0 97.0 L 234.0 98.0 L 233.0 99.0 L 232.0 99.0 L 231.0 98.0 L 228.0 98.0 L 227.0 97.0 Z M 219.0 94.0 L 220.0 93.0 L 221.0 93.0 L 222.0 94.0 L 225.0 94.0 L 227.0 96.0 L 223.0 100.0 L 222.0 100.0 L 220.0 98.0 L 220.0 96.0 L 219.0 95.0 Z M 214.0 93.0 L 215.0 92.0 L 216.0 92.0 L 217.0 93.0 L 217.0 94.0 L 216.0 95.0 L 215.0 95.0 L 214.0 94.0 Z M 139.0 93.0 L 139.0 94.0 L 137.0 96.0 L 137.0 97.0 L 135.0 99.0 L 134.0 99.0 L 132.0 97.0 L 127.0 97.0 L 126.0 98.0 L 125.0 98.0 L 124.0 97.0 L 124.0 96.0 L 125.0 95.0 L 127.0 95.0 L 128.0 94.0 L 131.0 94.0 L 132.0 93.0 L 136.0 93.0 L 137.0 92.0 L 138.0 92.0 Z M 205.0 92.0 L 206.0 91.0 L 210.0 91.0 L 211.0 92.0 L 211.0 93.0 L 210.0 94.0 L 206.0 94.0 L 205.0 93.0 Z M 141.0 92.0 L 142.0 91.0 L 144.0 91.0 L 145.0 92.0 L 145.0 93.0 L 144.0 94.0 L 142.0 94.0 L 141.0 93.0 Z M 148.0 91.0 L 149.0 90.0 L 160.0 90.0 L 162.0 92.0 L 159.0 95.0 L 157.0 93.0 L 149.0 93.0 L 148.0 92.0 Z M 182.0 85.0 L 183.0 84.0 L 184.0 84.0 L 185.0 85.0 L 193.0 85.0 L 194.0 86.0 L 194.0 89.0 L 195.0 90.0 L 201.0 90.0 L 202.0 91.0 L 202.0 92.0 L 199.0 95.0 L 197.0 95.0 L 195.0 93.0 L 194.0 93.0 L 193.0 94.0 L 193.0 95.0 L 192.0 96.0 L 192.0 97.0 L 190.0 99.0 L 188.0 97.0 L 187.0 97.0 L 185.0 95.0 L 185.0 94.0 L 184.0 93.0 L 184.0 92.0 L 182.0 90.0 Z M 174.0 84.0 L 175.0 85.0 L 175.0 90.0 L 173.0 92.0 L 173.0 93.0 L 172.0 94.0 L 172.0 95.0 L 169.0 98.0 L 168.0 98.0 L 167.0 99.0 L 165.0 97.0 L 165.0 95.0 L 164.0 94.0 L 164.0 93.0 L 162.0 91.0 L 162.0 90.0 L 163.0 89.0 L 163.0 86.0 L 164.0 85.0 L 171.0 85.0 L 172.0 84.0 Z M 164.0 81.0 L 164.0 80.0 L 165.0 79.0 L 166.0 79.0 L 167.0 80.0 L 165.0 82.0 Z M 190.0 79.0 L 191.0 78.0 L 192.0 78.0 L 194.0 80.0 L 194.0 81.0 L 193.0 82.0 L 192.0 82.0 L 190.0 80.0 Z M 250.0 45.0 L 250.0 49.0 L 252.0 51.0 L 255.0 51.0 L 258.0 48.0 L 258.0 47.0 L 261.0 44.0 L 262.0 44.0 L 263.0 43.0 L 264.0 43.0 L 265.0 42.0 L 268.0 41.0 L 270.0 39.0 L 271.0 39.0 L 272.0 38.0 L 276.0 38.0 L 279.0 41.0 L 279.0 42.0 L 281.0 44.0 L 281.0 45.0 L 285.0 50.0 L 286.0 53.0 L 288.0 55.0 L 288.0 56.0 L 292.0 61.0 L 292.0 67.0 L 295.0 69.0 L 296.0 69.0 L 299.0 67.0 L 299.0 63.0 L 297.0 61.0 L 295.0 61.0 L 293.0 59.0 L 293.0 58.0 L 291.0 56.0 L 291.0 55.0 L 287.0 50.0 L 286.0 47.0 L 284.0 45.0 L 284.0 44.0 L 280.0 39.0 L 280.0 38.0 L 279.0 37.0 L 279.0 33.0 L 278.0 32.0 L 273.0 32.0 L 272.0 33.0 L 272.0 35.0 L 270.0 37.0 L 269.0 37.0 L 267.0 39.0 L 266.0 39.0 L 265.0 40.0 L 264.0 40.0 L 263.0 41.0 L 260.0 42.0 L 258.0 44.0 L 255.0 44.0 L 254.0 43.0 L 253.0 43.0 Z" fill="#ddc2aa" fill-rule="evenodd"/>
</svg>